<?xml version="1.0" encoding="UTF-8"?>
<svg id="Layer_2" data-name="Layer 2" xmlns="http://www.w3.org/2000/svg" viewBox="0 0 350 309.17">
  <path d="M344.94,70.8L274.13,0H75.81L0,75.81l165.76,223.5,7.32,9.86,7.41-9.77,169.51-223.54-5.06-5.06ZM236.04,84.82l-62.75,184.72-60.4-184.72h123.15ZM126.39,68.4l48.58-48.59,48.59,48.59h-97.17ZM274.26,23.34l45.06,45.06h-60.37l15.31-45.06ZM259.28,16.41l-16.35,48.14-48.14-48.14h64.49ZM155.16,16.41l-48.7,48.7-15.92-48.7h64.63ZM75.56,23.46l14.69,44.94H30.63l44.94-44.94ZM27.12,84.82h68.51l54.02,165.2L27.12,84.82ZM197.2,250.19l56.17-165.37h69.23l-125.41,165.37Z" style="fill: #000; stroke-width: 0px;"/>
</svg>