<?xml version="1.0" encoding="UTF-8"?>
<svg xmlns="http://www.w3.org/2000/svg" viewBox="0 0 980 502.89">
  <g id="Titles">
    <g id="Initials_and_Diamond">
      <path d="M674.75,154.02l-76.98-76.98h-215.61l-82.42,82.42,180.21,242.99,7.95,10.72,8.06-10.63,184.29-243.02-5.5-5.5ZM556.37,169.25l-68.22,200.82-65.67-200.82h133.88ZM437.15,151.4l52.82-52.82,52.82,52.82h-105.64ZM597.91,102.42l48.99,48.99h-65.63l16.64-48.99ZM581.63,94.89l-17.78,52.34-52.34-52.34h70.12ZM468.43,94.89l-52.95,52.95-17.31-52.95h70.26ZM381.89,102.55l15.98,48.86h-64.83l48.85-48.86ZM329.23,169.25h74.48l58.73,179.6-133.21-179.6ZM514.14,349.04l61.07-179.79h75.27l-136.34,179.79Z" style="fill: #fff; stroke-width: 0px;"/>
    </g>
  </g>
</svg>