<?xml version="1.0" encoding="UTF-8"?>
<svg xmlns="http://www.w3.org/2000/svg" viewBox="0 0 980 167.59">
  <g id="Titles">
    <g>
      <path d="M71.19,49.88v43.02c0,6.66-1.88,11.79-5.62,15.39-3.75,3.6-8.81,5.4-15.17,5.4s-12-1.89-16.02-5.67c-4.02-3.78-6.03-9.15-6.03-16.11h15.3c0,2.64.54,4.63,1.62,5.98,1.08,1.35,2.64,2.02,4.68,2.02,1.86,0,3.3-.6,4.32-1.8,1.02-1.2,1.53-2.94,1.53-5.22v-43.02h15.39Z" style="fill: #1d1d1b; stroke-width: 0px;"/>
      <path d="M106.15,109.54c-4.95-2.76-8.88-6.61-11.79-11.56-2.91-4.95-4.36-10.51-4.36-16.69s1.45-11.73,4.36-16.65c2.91-4.92,6.84-8.76,11.79-11.52,4.95-2.76,10.4-4.14,16.33-4.14s11.39,1.38,16.33,4.14c4.95,2.76,8.85,6.6,11.7,11.52,2.85,4.92,4.27,10.47,4.27,16.65s-1.44,11.75-4.32,16.69c-2.88,4.95-6.78,8.81-11.7,11.56-4.92,2.76-10.35,4.14-16.29,4.14s-11.38-1.38-16.33-4.14ZM134.59,94.61c3.03-3.36,4.54-7.8,4.54-13.32s-1.52-10.04-4.54-13.36c-3.03-3.33-7.06-5-12.1-5s-9.17,1.65-12.19,4.95c-3.03,3.3-4.54,7.77-4.54,13.41s1.51,10.04,4.54,13.37c3.03,3.33,7.09,4.99,12.19,4.99s9.07-1.68,12.1-5.04Z" style="fill: #1d1d1b; stroke-width: 0px;"/>
      <path d="M228.87,113.05h-15.39l-25.74-38.97v38.97h-15.39v-63.18h15.39l25.74,39.15v-39.15h15.39v63.18Z" style="fill: #1d1d1b; stroke-width: 0px;"/>
      <path d="M288.36,101.9h-23.58l-3.78,11.16h-16.11l22.86-63.18h17.82l22.86,63.18h-16.29l-3.78-11.16ZM284.4,90.02l-7.83-23.13-7.74,23.13h15.57Z" style="fill: #1d1d1b; stroke-width: 0px;"/>
      <path d="M334.8,111.43c-3.66-1.5-6.58-3.72-8.77-6.66-2.19-2.94-3.35-6.48-3.46-10.62h16.38c.24,2.34,1.05,4.13,2.43,5.35,1.38,1.23,3.18,1.84,5.4,1.84s4.08-.52,5.4-1.57c1.32-1.05,1.98-2.5,1.98-4.37,0-1.56-.53-2.85-1.58-3.87-1.05-1.02-2.34-1.86-3.87-2.52-1.53-.66-3.71-1.41-6.52-2.25-4.08-1.26-7.41-2.52-9.99-3.78-2.58-1.26-4.8-3.12-6.66-5.58-1.86-2.46-2.79-5.67-2.79-9.63,0-5.88,2.13-10.48,6.39-13.81,4.26-3.33,9.81-5,16.65-5s12.57,1.67,16.83,5c4.26,3.33,6.54,7.96,6.84,13.9h-16.65c-.12-2.04-.87-3.65-2.25-4.81-1.38-1.17-3.15-1.75-5.31-1.75-1.86,0-3.36.5-4.5,1.48-1.14.99-1.71,2.42-1.71,4.27,0,2.04.96,3.63,2.88,4.77,1.92,1.14,4.92,2.37,9,3.69,4.08,1.38,7.39,2.7,9.95,3.96,2.55,1.26,4.75,3.09,6.62,5.49,1.86,2.4,2.79,5.49,2.79,9.27s-.92,6.87-2.75,9.81c-1.83,2.94-4.49,5.28-7.97,7.02-3.48,1.74-7.59,2.61-12.33,2.61s-8.76-.75-12.42-2.25Z" style="fill: #1d1d1b; stroke-width: 0px;"/>
      <path d="M453.42,113.05l-21.24-27.9v27.9h-15.39v-63.18h15.39v27.72l21.06-27.72h18.09l-24.48,30.96,25.38,32.22h-18.81Z" style="fill: #1d1d1b; stroke-width: 0px;"/>
      <path d="M527.84,101.9h-23.58l-3.78,11.16h-16.11l22.86-63.18h17.82l22.86,63.18h-16.29l-3.78-11.16ZM523.88,90.02l-7.83-23.13-7.74,23.13h15.57Z" style="fill: #1d1d1b; stroke-width: 0px;"/>
      <path d="M596.06,113.05l-13.14-23.85h-3.69v23.85h-15.39v-63.18h25.83c4.98,0,9.22.87,12.73,2.61,3.51,1.74,6.13,4.13,7.88,7.15,1.74,3.03,2.61,6.41,2.61,10.12,0,4.2-1.19,7.95-3.55,11.25-2.37,3.3-5.87,5.64-10.49,7.02l14.58,25.02h-17.37ZM579.23,78.32h9.54c2.82,0,4.93-.69,6.35-2.07,1.41-1.38,2.11-3.33,2.11-5.85s-.71-4.29-2.11-5.67c-1.41-1.38-3.53-2.07-6.35-2.07h-9.54v15.66Z" style="fill: #1d1d1b; stroke-width: 0px;"/>
      <path d="M646.91,101.18h20.16v11.88h-35.55v-63.18h15.39v51.3Z" style="fill: #1d1d1b; stroke-width: 0px;"/>
      <path d="M693.89,111.43c-3.66-1.5-6.58-3.72-8.77-6.66-2.19-2.94-3.35-6.48-3.46-10.62h16.38c.24,2.34,1.05,4.13,2.43,5.35,1.38,1.23,3.18,1.84,5.4,1.84s4.08-.52,5.4-1.57c1.32-1.05,1.98-2.5,1.98-4.37,0-1.56-.53-2.85-1.58-3.87-1.05-1.02-2.34-1.86-3.87-2.52-1.53-.66-3.71-1.41-6.52-2.25-4.08-1.26-7.41-2.52-9.99-3.78-2.58-1.26-4.8-3.12-6.66-5.58-1.86-2.46-2.79-5.67-2.79-9.63,0-5.88,2.13-10.48,6.39-13.81,4.26-3.33,9.81-5,16.65-5s12.57,1.67,16.83,5c4.26,3.33,6.54,7.96,6.84,13.9h-16.65c-.12-2.04-.87-3.65-2.25-4.81-1.38-1.17-3.15-1.75-5.31-1.75-1.86,0-3.36.5-4.5,1.48-1.14.99-1.71,2.42-1.71,4.27,0,2.04.96,3.63,2.88,4.77,1.92,1.14,4.92,2.37,9,3.69,4.08,1.38,7.39,2.7,9.95,3.96,2.55,1.26,4.75,3.09,6.62,5.49,1.86,2.4,2.79,5.49,2.79,9.27s-.92,6.87-2.75,9.81c-1.83,2.94-4.49,5.28-7.97,7.02-3.48,1.74-7.59,2.61-12.33,2.61s-8.76-.75-12.42-2.25Z" style="fill: #1d1d1b; stroke-width: 0px;"/>
      <path d="M758.24,111.43c-3.66-1.5-6.58-3.72-8.77-6.66-2.19-2.94-3.35-6.48-3.46-10.62h16.38c.24,2.34,1.05,4.13,2.43,5.35,1.38,1.23,3.18,1.84,5.4,1.84s4.08-.52,5.4-1.57c1.32-1.05,1.98-2.5,1.98-4.37,0-1.56-.53-2.85-1.58-3.87-1.05-1.02-2.34-1.86-3.87-2.52-1.53-.66-3.71-1.41-6.52-2.25-4.08-1.26-7.41-2.52-9.99-3.78-2.58-1.26-4.8-3.12-6.66-5.58-1.86-2.46-2.79-5.67-2.79-9.63,0-5.88,2.13-10.48,6.39-13.81,4.26-3.33,9.81-5,16.65-5s12.57,1.67,16.83,5c4.26,3.33,6.54,7.96,6.84,13.9h-16.65c-.12-2.04-.87-3.65-2.25-4.81-1.38-1.17-3.15-1.75-5.31-1.75-1.86,0-3.36.5-4.5,1.48-1.14.99-1.71,2.42-1.71,4.27,0,2.04.96,3.63,2.88,4.77,1.92,1.14,4.92,2.37,9,3.69,4.08,1.38,7.39,2.7,9.95,3.96,2.55,1.26,4.75,3.09,6.62,5.49,1.86,2.4,2.79,5.49,2.79,9.27s-.92,6.87-2.75,9.81c-1.83,2.94-4.49,5.28-7.97,7.02-3.48,1.74-7.59,2.61-12.33,2.61s-8.76-.75-12.42-2.25Z" style="fill: #1d1d1b; stroke-width: 0px;"/>
      <path d="M825.7,109.54c-4.95-2.76-8.88-6.61-11.79-11.56-2.91-4.95-4.37-10.51-4.37-16.69s1.45-11.73,4.37-16.65c2.91-4.92,6.84-8.76,11.79-11.52,4.95-2.76,10.39-4.14,16.33-4.14s11.38,1.38,16.33,4.14c4.95,2.76,8.85,6.6,11.7,11.52,2.85,4.92,4.27,10.47,4.27,16.65s-1.44,11.75-4.32,16.69c-2.88,4.95-6.78,8.81-11.7,11.56-4.92,2.76-10.35,4.14-16.29,4.14s-11.38-1.38-16.33-4.14ZM854.14,94.61c3.03-3.36,4.54-7.8,4.54-13.32s-1.52-10.04-4.54-13.36c-3.03-3.33-7.07-5-12.11-5s-9.17,1.65-12.2,4.95c-3.03,3.3-4.54,7.77-4.54,13.41s1.51,10.04,4.54,13.37c3.03,3.33,7.09,4.99,12.2,4.99s9.07-1.68,12.11-5.04Z" style="fill: #1d1d1b; stroke-width: 0px;"/>
      <path d="M948.41,113.05h-15.39l-25.74-38.97v38.97h-15.39v-63.18h15.39l25.74,39.15v-39.15h15.39v63.18Z" style="fill: #1d1d1b; stroke-width: 0px;"/>
    </g>
  </g>
  <g id="Frame">
    <g id="Right-Bottom-Cornor">
      <rect x="910" y="86.93" width="10" height="130" transform="translate(763.07 1066.93) rotate(-90)" style="fill: #000; stroke-width: 0px;"/>
      <rect x="970" y="96.89" width="10" height="50" style="fill: #000; stroke-width: 0px;"/>
    </g>
    <g id="Left-Bottom-Cornor">
      <rect x="60" y="85.04" width="10" height="130" transform="translate(-85.04 215.04) rotate(-90)" style="fill: #000; stroke-width: 0px;"/>
      <rect x="0" y="95.04" width="10" height="50" style="fill: #000; stroke-width: 0px;"/>
    </g>
    <g id="Right-Top-Cornor">
      <rect x="910" y="-58.07" width="10" height="130" transform="translate(908.07 921.93) rotate(-90)" style="fill: #000; stroke-width: 0px;"/>
      <rect x="970" y="11.93" width="10" height="50" style="fill: #000; stroke-width: 0px;"/>
    </g>
    <g id="Left-Top-Cornor">
      <rect x="60" y="-60" width="10" height="130" transform="translate(60 70) rotate(-90)" style="fill: #000; stroke-width: 0px;"/>
      <rect x="0" y="10" width="10" height="50" style="fill: #000; stroke-width: 0px;"/>
    </g>
  </g>
</svg>