<?xml version="1.0" encoding="UTF-8"?>
<svg xmlns="http://www.w3.org/2000/svg" viewBox="0 0 980 502.89">
  <g id="Titles">
    <g>
      <path d="M340.53,9.48c.93-1.63,2.2-2.9,3.81-3.81,1.61-.91,3.42-1.36,5.42-1.36,2.34,0,4.39.6,6.15,1.8,1.76,1.2,2.99,2.86,3.69,4.98h-4.83c-.48-1-1.16-1.75-2.03-2.25-.87-.5-1.88-.75-3.01-.75-1.22,0-2.31.29-3.26.85-.95.57-1.69,1.38-2.22,2.42-.53,1.04-.79,2.26-.79,3.66s.26,2.6.79,3.65c.53,1.05,1.27,1.86,2.22,2.43.95.57,2.04.85,3.26.85,1.14,0,2.15-.26,3.01-.77.87-.51,1.55-1.26,2.03-2.27h4.83c-.7,2.14-1.92,3.81-3.67,5-1.75,1.19-3.81,1.79-6.17,1.79-2,0-3.81-.46-5.42-1.37-1.61-.91-2.88-2.17-3.81-3.79-.93-1.62-1.4-3.46-1.4-5.52s.47-3.9,1.4-5.54Z" style="fill: #fff; stroke-width: 0px;"/>
      <path d="M372.51,9.4c.87-.5,1.86-.75,2.99-.75v4.41h-1.11c-1.32,0-2.31.31-2.98.93-.67.62-1,1.7-1,3.24v8.28h-4.2V8.89h4.2v2.58c.54-.88,1.25-1.57,2.11-2.07Z" style="fill: #fff; stroke-width: 0px;"/>
      <path d="M396.64,18.46h-12.15c.1,1.2.52,2.14,1.26,2.82.74.68,1.65,1.02,2.73,1.02,1.56,0,2.67-.67,3.33-2.01h4.53c-.48,1.6-1.4,2.92-2.76,3.95-1.36,1.03-3.03,1.54-5.01,1.54-1.6,0-3.04-.35-4.31-1.06s-2.26-1.71-2.97-3.02c-.71-1.3-1.06-2.8-1.06-4.5s.35-3.23,1.05-4.53c.7-1.3,1.68-2.3,2.94-3,1.26-.7,2.71-1.05,4.35-1.05s2.99.34,4.25,1.02c1.25.68,2.22,1.65,2.91,2.9.69,1.25,1.04,2.69,1.04,4.31,0,.6-.04,1.14-.12,1.62ZM392.41,15.64c-.02-1.08-.41-1.94-1.17-2.59-.76-.65-1.69-.98-2.79-.98-1.04,0-1.92.31-2.62.94s-1.15,1.51-1.31,2.62h7.89Z" style="fill: #fff; stroke-width: 0px;"/>
      <path d="M402.75,12.67c.67-1.3,1.58-2.3,2.73-3,1.15-.7,2.43-1.05,3.85-1.05,1.24,0,2.32.25,3.25.75.93.5,1.67,1.13,2.23,1.89v-2.37h4.23v16.62h-4.23v-2.43c-.54.78-1.29,1.43-2.23,1.94-.95.51-2.04.77-3.29.77-1.4,0-2.67-.36-3.82-1.08-1.15-.72-2.06-1.73-2.73-3.04-.67-1.31-1-2.81-1-4.52s.33-3.17,1-4.47ZM414.22,14.58c-.4-.73-.94-1.29-1.62-1.68-.68-.39-1.41-.58-2.19-.58s-1.5.19-2.16.57-1.2.94-1.6,1.67c-.41.73-.62,1.6-.62,2.59s.21,1.88.62,2.62c.41.75.95,1.33,1.62,1.73.67.4,1.38.6,2.15.6s1.51-.2,2.19-.58c.68-.39,1.22-.95,1.62-1.68.4-.73.6-1.6.6-2.62s-.2-1.89-.6-2.62Z" style="fill: #fff; stroke-width: 0px;"/>
      <path d="M431.05,12.34v8.04c0,.56.14.96.41,1.21.27.25.72.38,1.36.38h1.95v3.54h-2.64c-3.54,0-5.31-1.72-5.31-5.16v-8.01h-1.98v-3.45h1.98v-4.11h4.23v4.11h3.72v3.45h-3.72Z" style="fill: #fff; stroke-width: 0px;"/>
      <path d="M441.08,6.21c-.49-.47-.73-1.05-.73-1.75s.24-1.28.73-1.75c.49-.47,1.1-.71,1.85-.71s1.35.24,1.84.71c.49.47.73,1.06.73,1.75s-.25,1.29-.73,1.75c-.49.47-1.11.71-1.84.71s-1.36-.23-1.85-.71ZM445,8.89v16.62h-4.2V8.89h4.2Z" style="fill: #fff; stroke-width: 0px;"/>
      <path d="M459.07,21.64l4.2-12.75h4.47l-6.15,16.62h-5.1l-6.12-16.62h4.5l4.2,12.75Z" style="fill: #fff; stroke-width: 0px;"/>
      <path d="M488.44,18.46h-12.15c.1,1.2.52,2.14,1.26,2.82.74.68,1.65,1.02,2.73,1.02,1.56,0,2.67-.67,3.33-2.01h4.53c-.48,1.6-1.4,2.92-2.76,3.95-1.36,1.03-3.03,1.54-5.01,1.54-1.6,0-3.04-.35-4.31-1.06s-2.26-1.71-2.97-3.02c-.71-1.3-1.06-2.8-1.06-4.5s.35-3.23,1.05-4.53c.7-1.3,1.68-2.3,2.94-3,1.26-.7,2.71-1.05,4.35-1.05s2.99.34,4.25,1.02c1.25.68,2.22,1.65,2.91,2.9.69,1.25,1.04,2.69,1.04,4.31,0,.6-.04,1.14-.12,1.62ZM484.21,15.64c-.02-1.08-.41-1.94-1.17-2.59-.76-.65-1.69-.98-2.79-.98-1.04,0-1.92.31-2.62.94s-1.15,1.51-1.31,2.62h7.89Z" style="fill: #fff; stroke-width: 0px;"/>
      <path d="M517.88,5.86c1.67.86,2.96,2.08,3.87,3.67.91,1.59,1.37,3.44,1.37,5.54s-.46,3.94-1.37,5.5c-.91,1.57-2.2,2.79-3.87,3.65-1.67.86-3.61,1.29-5.8,1.29h-7.32V4.57h7.32c2.2,0,4.13.43,5.8,1.29ZM517.03,20.14c1.2-1.2,1.8-2.89,1.8-5.07s-.6-3.89-1.8-5.12c-1.2-1.23-2.9-1.84-5.1-1.84h-2.97v13.83h2.97c2.2,0,3.9-.6,5.1-1.8Z" style="fill: #fff; stroke-width: 0px;"/>
      <path d="M544.6,18.46h-12.15c.1,1.2.52,2.14,1.26,2.82.74.68,1.65,1.02,2.73,1.02,1.56,0,2.67-.67,3.33-2.01h4.53c-.48,1.6-1.4,2.92-2.76,3.95-1.36,1.03-3.03,1.54-5.01,1.54-1.6,0-3.04-.35-4.3-1.06-1.27-.71-2.26-1.71-2.97-3.02-.71-1.3-1.07-2.8-1.07-4.5s.35-3.23,1.05-4.53c.7-1.3,1.68-2.3,2.94-3s2.71-1.05,4.35-1.05,3,.34,4.25,1.02c1.25.68,2.22,1.65,2.91,2.9.69,1.25,1.04,2.69,1.04,4.31,0,.6-.04,1.14-.12,1.62ZM540.37,15.64c-.02-1.08-.41-1.94-1.17-2.59s-1.69-.98-2.79-.98c-1.04,0-1.92.31-2.62.94s-1.14,1.51-1.3,2.62h7.89Z" style="fill: #fff; stroke-width: 0px;"/>
      <path d="M553.48,25.05c-1.08-.49-1.93-1.16-2.56-2s-.97-1.77-1.04-2.79h4.23c.08.64.39,1.17.94,1.59s1.24.63,2.06.63,1.42-.16,1.88-.48c.45-.32.67-.73.67-1.23,0-.54-.28-.94-.83-1.21-.55-.27-1.42-.56-2.62-.88-1.24-.3-2.25-.61-3.04-.93-.79-.32-1.47-.81-2.04-1.47-.57-.66-.86-1.55-.86-2.67,0-.92.27-1.76.8-2.52.53-.76,1.29-1.36,2.28-1.8s2.16-.66,3.5-.66c1.98,0,3.56.5,4.74,1.49,1.18.99,1.83,2.32,1.95,4h-4.02c-.06-.66-.33-1.19-.83-1.58s-1.14-.58-1.96-.58c-.76,0-1.34.14-1.75.42-.41.28-.62.67-.62,1.17,0,.56.28.99.84,1.28.56.29,1.43.58,2.61.88,1.2.3,2.19.61,2.97.93.78.32,1.46.81,2.03,1.48.57.67.87,1.56.88,2.65,0,.96-.26,1.82-.79,2.58-.53.76-1.29,1.36-2.28,1.79-.99.43-2.14.65-3.46.65s-2.58-.25-3.66-.73Z" style="fill: #fff; stroke-width: 0px;"/>
      <path d="M570.42,6.21c-.49-.47-.74-1.05-.74-1.75s.24-1.28.74-1.75c.49-.47,1.1-.71,1.84-.71s1.35.24,1.84.71c.49.47.74,1.06.74,1.75s-.25,1.29-.74,1.75c-.49.47-1.11.71-1.84.71s-1.36-.23-1.84-.71ZM574.33,8.89v16.62h-4.2V8.89h4.2Z" style="fill: #fff; stroke-width: 0px;"/>
      <path d="M591.25,9.36c.94.49,1.68,1.12,2.22,1.9v-2.37h4.23v16.74c0,1.54-.31,2.91-.93,4.12-.62,1.21-1.55,2.17-2.79,2.88-1.24.71-2.74,1.06-4.5,1.06-2.36,0-4.29-.55-5.8-1.65-1.51-1.1-2.37-2.6-2.57-4.5h4.17c.22.76.69,1.36,1.42,1.81s1.62.67,2.66.67c1.22,0,2.21-.36,2.97-1.09.76-.73,1.14-1.84,1.14-3.31v-2.58c-.54.78-1.29,1.43-2.24,1.95-.95.52-2.04.78-3.25.78-1.4,0-2.68-.36-3.84-1.08-1.16-.72-2.08-1.73-2.75-3.04-.67-1.31-1-2.81-1-4.52s.33-3.17,1-4.47c.67-1.3,1.58-2.3,2.73-3s2.44-1.05,3.86-1.05c1.24,0,2.33.25,3.27.74ZM592.87,14.58c-.4-.73-.94-1.29-1.62-1.68-.68-.39-1.41-.58-2.19-.58s-1.5.19-2.16.57-1.2.94-1.61,1.67-.61,1.6-.61,2.59.2,1.88.61,2.62.95,1.33,1.62,1.73c.67.4,1.38.6,2.15.6s1.51-.2,2.19-.58c.68-.39,1.22-.95,1.62-1.68.4-.73.6-1.6.6-2.62s-.2-1.89-.6-2.62Z" style="fill: #fff; stroke-width: 0px;"/>
      <path d="M618.82,10.53c1.22,1.25,1.83,3,1.83,5.23v9.75h-4.2v-9.18c0-1.32-.33-2.33-.99-3.04-.66-.71-1.56-1.06-2.7-1.06s-2.07.36-2.74,1.06c-.67.71-1.01,1.73-1.01,3.04v9.18h-4.2V8.89h4.2v2.07c.56-.72,1.28-1.29,2.15-1.7.87-.41,1.83-.61,2.87-.61,1.98,0,3.58.62,4.8,1.88Z" style="fill: #fff; stroke-width: 0px;"/>
      <path d="M630.34,25.05c-1.08-.49-1.93-1.16-2.56-2s-.97-1.77-1.04-2.79h4.23c.08.64.39,1.17.94,1.59s1.24.63,2.06.63,1.42-.16,1.88-.48c.45-.32.67-.73.67-1.23,0-.54-.28-.94-.83-1.21-.55-.27-1.42-.56-2.62-.88-1.24-.3-2.25-.61-3.04-.93-.79-.32-1.47-.81-2.04-1.47-.57-.66-.86-1.55-.86-2.67,0-.92.27-1.76.8-2.52.53-.76,1.29-1.36,2.28-1.8s2.16-.66,3.5-.66c1.98,0,3.56.5,4.74,1.49,1.18.99,1.83,2.32,1.95,4h-4.02c-.06-.66-.33-1.19-.83-1.58s-1.14-.58-1.96-.58c-.76,0-1.34.14-1.75.42-.41.28-.62.67-.62,1.17,0,.56.28.99.84,1.28.56.29,1.43.58,2.61.88,1.2.3,2.19.61,2.97.93.78.32,1.46.81,2.03,1.48.57.67.87,1.56.88,2.65,0,.96-.26,1.82-.79,2.58-.53.76-1.29,1.36-2.28,1.79-.99.43-2.14.65-3.46.65s-2.58-.25-3.66-.73Z" style="fill: #fff; stroke-width: 0px;"/>
    </g>
    <g>
      <path d="M368.65,464.16v14.7c0,2.04-.59,3.63-1.77,4.76s-2.76,1.69-4.74,1.69-3.62-.58-4.85-1.74-1.84-2.78-1.84-4.86h4.2c.02.9.23,1.6.65,2.1.41.5,1.01.75,1.79.75s1.34-.24,1.74-.72c.4-.48.6-1.14.6-1.98v-14.7h4.23Z" style="fill: #fff; stroke-width: 0px;"/>
      <path d="M379.6,484.31c-1.28-.71-2.29-1.71-3.01-3.01-.73-1.3-1.1-2.8-1.1-4.5s.38-3.2,1.12-4.5,1.77-2.3,3.08-3.02c1.3-.71,2.75-1.06,4.35-1.06s3.05.36,4.35,1.06c1.3.71,2.33,1.72,3.08,3.02s1.12,2.8,1.12,4.5-.39,3.2-1.16,4.5-1.81,2.3-3.12,3.01c-1.31.71-2.78,1.07-4.4,1.07s-3.04-.36-4.32-1.07ZM386.07,481.16c.67-.37,1.2-.92,1.6-1.67.4-.74.6-1.64.6-2.7,0-1.58-.42-2.79-1.24-3.65-.83-.85-1.85-1.27-3.05-1.27s-2.2.42-3.01,1.27c-.81.85-1.22,2.07-1.22,3.65s.4,2.79,1.19,3.64c.79.85,1.79,1.28,2.99,1.28.76,0,1.47-.18,2.15-.55Z" style="fill: #fff; stroke-width: 0px;"/>
      <path d="M412.69,470.12c1.22,1.25,1.83,3,1.83,5.23v9.75h-4.2v-9.18c0-1.32-.33-2.33-.99-3.04-.66-.71-1.56-1.07-2.7-1.07s-2.08.36-2.75,1.07c-.67.71-1,1.72-1,3.04v9.18h-4.2v-16.62h4.2v2.07c.56-.72,1.27-1.29,2.15-1.7.87-.41,1.82-.61,2.86-.61,1.98,0,3.58.62,4.8,1.88Z" style="fill: #fff; stroke-width: 0px;"/>
      <path d="M421.44,472.26c.67-1.3,1.58-2.3,2.73-3,1.15-.7,2.43-1.05,3.85-1.05,1.24,0,2.32.25,3.25.75s1.67,1.13,2.23,1.89v-2.37h4.23v16.62h-4.23v-2.43c-.54.78-1.29,1.42-2.23,1.93-.95.51-2.04.77-3.29.77-1.4,0-2.67-.36-3.82-1.08-1.15-.72-2.06-1.74-2.73-3.04-.67-1.31-1-2.82-1-4.52s.33-3.17,1-4.47ZM432.91,474.17c-.4-.73-.94-1.29-1.62-1.68-.68-.39-1.41-.58-2.19-.58s-1.5.19-2.16.57-1.2.94-1.6,1.67c-.41.73-.62,1.6-.62,2.59s.21,1.88.62,2.62c.41.75.95,1.33,1.62,1.73.67.4,1.38.6,2.15.6s1.51-.2,2.19-.58c.68-.39,1.22-.95,1.62-1.68.4-.73.6-1.61.6-2.62s-.2-1.89-.6-2.62Z" style="fill: #fff; stroke-width: 0px;"/>
      <path d="M447.55,484.64c-1.08-.49-1.94-1.16-2.56-2s-.98-1.77-1.04-2.79h4.23c.08.64.4,1.17.95,1.59.55.42,1.23.63,2.05.63s1.43-.16,1.88-.48c.45-.32.68-.73.68-1.23,0-.54-.28-.94-.83-1.21-.55-.27-1.42-.56-2.62-.88-1.24-.3-2.26-.61-3.04-.93-.79-.32-1.47-.81-2.04-1.47-.57-.66-.85-1.55-.85-2.67,0-.92.26-1.76.79-2.52.53-.76,1.29-1.36,2.28-1.8.99-.44,2.16-.66,3.5-.66,1.98,0,3.56.5,4.74,1.49,1.18.99,1.83,2.32,1.95,4h-4.02c-.06-.66-.33-1.19-.82-1.58-.49-.39-1.15-.58-1.97-.58-.76,0-1.35.14-1.75.42-.41.28-.61.67-.61,1.17,0,.56.28.99.84,1.28.56.29,1.43.58,2.61.88,1.2.3,2.19.61,2.97.93.78.32,1.46.82,2.02,1.49s.86,1.55.89,2.65c0,.96-.27,1.82-.8,2.58-.53.76-1.29,1.36-2.28,1.79-.99.43-2.15.65-3.46.65s-2.58-.25-3.66-.74Z" style="fill: #fff; stroke-width: 0px;"/>
      <path d="M486.16,485.1l-7.62-9.33v9.33h-4.2v-20.94h4.2v9.39l7.62-9.39h5.07l-8.64,10.38,8.88,10.56h-5.31Z" style="fill: #fff; stroke-width: 0px;"/>
      <path d="M497.15,472.26c.67-1.3,1.58-2.3,2.73-3,1.15-.7,2.43-1.05,3.85-1.05,1.24,0,2.33.25,3.25.75.93.5,1.67,1.13,2.24,1.89v-2.37h4.23v16.62h-4.23v-2.43c-.54.78-1.29,1.42-2.24,1.93-.95.51-2.04.77-3.29.77-1.4,0-2.67-.36-3.82-1.08-1.15-.72-2.06-1.74-2.73-3.04s-1-2.82-1-4.52.33-3.17,1-4.47ZM508.63,474.17c-.4-.73-.94-1.29-1.62-1.68-.68-.39-1.41-.58-2.19-.58s-1.5.19-2.16.57-1.2.94-1.6,1.67c-.41.73-.62,1.6-.62,2.59s.21,1.88.62,2.62c.41.75.95,1.33,1.62,1.73.67.4,1.38.6,2.14.6s1.51-.2,2.19-.58c.68-.39,1.22-.95,1.62-1.68.4-.73.6-1.61.6-2.62s-.2-1.89-.6-2.62Z" style="fill: #fff; stroke-width: 0px;"/>
      <path d="M526.88,468.99c.87-.5,1.87-.75,2.99-.75v4.41h-1.11c-1.32,0-2.31.31-2.98.93-.67.62-1,1.7-1,3.24v8.28h-4.2v-16.62h4.2v2.58c.54-.88,1.25-1.57,2.11-2.07Z" style="fill: #fff; stroke-width: 0px;"/>
      <path d="M539.89,462.9v22.2h-4.2v-22.2h4.2Z" style="fill: #fff; stroke-width: 0px;"/>
      <path d="M549.73,484.64c-1.08-.49-1.93-1.16-2.56-2s-.98-1.77-1.04-2.79h4.23c.08.64.4,1.17.95,1.59s1.23.63,2.05.63,1.43-.16,1.88-.48c.45-.32.68-.73.68-1.23,0-.54-.28-.94-.83-1.21-.55-.27-1.42-.56-2.62-.88-1.24-.3-2.26-.61-3.04-.93-.79-.32-1.47-.81-2.04-1.47-.57-.66-.86-1.55-.86-2.67,0-.92.26-1.76.79-2.52s1.29-1.36,2.28-1.8c.99-.44,2.16-.66,3.5-.66,1.98,0,3.56.5,4.74,1.49,1.18.99,1.83,2.32,1.95,4h-4.02c-.06-.66-.33-1.19-.83-1.58-.49-.39-1.14-.58-1.96-.58-.76,0-1.35.14-1.75.42-.41.28-.62.67-.62,1.17,0,.56.28.99.84,1.28s1.43.58,2.61.88c1.2.3,2.19.61,2.97.93.78.32,1.46.82,2.03,1.49.57.67.86,1.55.88,2.65,0,.96-.27,1.82-.79,2.58-.53.76-1.29,1.36-2.28,1.79s-2.14.65-3.46.65-2.58-.25-3.66-.74Z" style="fill: #fff; stroke-width: 0px;"/>
      <path d="M569.08,484.64c-1.08-.49-1.93-1.16-2.56-2s-.97-1.77-1.04-2.79h4.23c.08.64.39,1.17.94,1.59s1.24.63,2.06.63,1.42-.16,1.88-.48c.45-.32.67-.73.67-1.23,0-.54-.28-.94-.83-1.21-.55-.27-1.42-.56-2.62-.88-1.24-.3-2.25-.61-3.04-.93s-1.47-.81-2.04-1.47c-.57-.66-.86-1.55-.86-2.67,0-.92.27-1.76.8-2.52.53-.76,1.29-1.36,2.28-1.8.99-.44,2.16-.66,3.5-.66,1.98,0,3.56.5,4.74,1.49,1.18.99,1.83,2.32,1.95,4h-4.02c-.06-.66-.33-1.19-.83-1.58-.49-.39-1.14-.58-1.96-.58-.76,0-1.34.14-1.75.42s-.62.67-.62,1.17c0,.56.28.99.84,1.28.56.29,1.43.58,2.61.88,1.2.3,2.19.61,2.97.93.78.32,1.46.82,2.03,1.49s.87,1.55.88,2.65c0,.96-.26,1.82-.79,2.58-.53.76-1.29,1.36-2.28,1.79-.99.43-2.14.65-3.46.65s-2.58-.25-3.66-.74Z" style="fill: #fff; stroke-width: 0px;"/>
      <path d="M588.79,484.31c-1.28-.71-2.29-1.71-3.01-3.01-.73-1.3-1.1-2.8-1.1-4.5s.38-3.2,1.12-4.5,1.78-2.3,3.08-3.02c1.3-.71,2.75-1.06,4.35-1.06s3.05.36,4.35,1.06c1.3.71,2.33,1.72,3.08,3.02s1.12,2.8,1.12,4.5-.39,3.2-1.16,4.5-1.81,2.3-3.12,3.01-2.77,1.07-4.39,1.07-3.04-.36-4.32-1.07ZM595.25,481.16c.67-.37,1.21-.92,1.61-1.67.4-.74.6-1.64.6-2.7,0-1.58-.42-2.79-1.25-3.65-.83-.85-1.84-1.27-3.04-1.27s-2.21.42-3.01,1.27c-.81.85-1.21,2.07-1.21,3.65s.39,2.79,1.18,3.64c.79.85,1.79,1.28,2.99,1.28.76,0,1.47-.18,2.14-.55Z" style="fill: #fff; stroke-width: 0px;"/>
      <path d="M621.88,470.12c1.22,1.25,1.83,3,1.83,5.23v9.75h-4.2v-9.18c0-1.32-.33-2.33-.99-3.04s-1.56-1.07-2.7-1.07-2.07.36-2.74,1.07c-.67.71-1.01,1.72-1.01,3.04v9.18h-4.2v-16.62h4.2v2.07c.56-.72,1.28-1.29,2.15-1.7.87-.41,1.83-.61,2.87-.61,1.98,0,3.58.62,4.8,1.88Z" style="fill: #fff; stroke-width: 0px;"/>
    </g>
    <g id="Initials_and_Diamond" data-name="Initials and Diamond">
      <path d="M674.75,154.02l-76.98-76.98h-215.61l-82.42,82.42,180.21,242.99,7.95,10.72,8.06-10.63,184.29-243.02-5.5-5.5ZM556.37,169.25l-68.22,200.82-65.67-200.82h133.88ZM437.15,151.4l52.82-52.82,52.82,52.82h-105.64ZM597.91,102.42l48.99,48.99h-65.63l16.64-48.99ZM581.63,94.89l-17.78,52.34-52.34-52.34h70.12ZM468.43,94.89l-52.95,52.95-17.31-52.95h70.26ZM381.89,102.55l15.98,48.86h-64.83l48.85-48.86ZM329.23,169.25h74.48l58.73,179.6-133.21-179.6ZM514.14,349.04l61.07-179.79h75.27l-136.34,179.79Z" style="fill: #fff; stroke-width: 0px;"/>
    </g>
  </g>
  <g id="Frame">
    <g id="Right-Bottom-Cornor">
      <rect x="845" y="350.1" width="20" height="250" transform="translate(379.9 1330.1) rotate(-90)" style="fill: #fff; stroke-width: 0px;"/>
      <rect x="960" y="315.1" width="20" height="150" style="fill: #fff; stroke-width: 0px;"/>
    </g>
    <g id="Left-Bottom-Cornor">
      <rect x="115" y="350.1" width="20" height="250" transform="translate(-350.1 600.1) rotate(-90)" style="fill: #fff; stroke-width: 0px;"/>
      <rect x="0" y="315.1" width="20" height="150" style="fill: #fff; stroke-width: 0px;"/>
    </g>
    <g id="Right-Top-Cornor">
      <rect x="845" y="-109.9" width="20" height="250" transform="translate(839.9 870.1) rotate(-90)" style="fill: #fff; stroke-width: 0px;"/>
      <rect x="960" y="25.1" width="20" height="150" style="fill: #fff; stroke-width: 0px;"/>
    </g>
    <g id="Left-Top-Cornor">
      <rect x="115" y="-109.9" width="20" height="250" transform="translate(109.9 140.1) rotate(-90)" style="fill: #fff; stroke-width: 0px;"/>
      <rect x="0" y="25.1" width="20" height="150" style="fill: #fff; stroke-width: 0px;"/>
    </g>
  </g>
</svg>